# xmcd CD database file
#
# Track frame offsets:
#	150
#	11245
#	34300
#	63800
#	90870
#	125310
#	138895
#	157320
#	174395
#	185188
#	202455
#	229088
#	242808
#	264533
#	288225
#
# Disc length: 4366 seconds
#
# Revision: 0
# Processed by: cddbd v1.5.1PL2 Copyright (c) Steve Scherf et al.
# Submitted via: CDex 1.51
#
DISCID=da110c0f
DTITLE=Troy "Trombone Shorty" Andrews and Orleans Avenue - Orleans and Claiborne
DYEAR=2005
DGENRE=Jazz
TTITLE0=Orleans and Claiborne
TTITLE1=Frontin'
TTITLE2=Get Down
TTITLE3=No Thing On Me
TTITLE4=Can't Get Enufa Dat Funky Stuff
TTITLE5=Act Bad With It
TTITLE6=Dynamite
TTITLE7=We Gonna Make You
TTITLE8=Suite Azari
TTITLE9=This Love
TTITLE10=Midnight Creeper
TTITLE11=Gettin' Ready For The Mardi Gras
TTITLE12=I Don't Know
TTITLE13=La Chica Dulce
TTITLE14=Got To Get Ready
EXTD=YEAR: 2005
EXTT0=
EXTT1=
EXTT2=
EXTT3=
EXTT4=
EXTT5=
EXTT6=
EXTT7=
EXTT8=
EXTT9=
EXTT10=
EXTT11=
EXTT12=
EXTT13=
EXTT14=
PLAYORDER=
